FFmpeg version SVN-r25716, Copyright (c) 2000-2010 the FFmpeg developers  built on Nov 10 2010 12:23:18 with gcc 4.1.2 20080704 (Red Hat 4.1.2-48)  configuration: --enable-libmp3lame --enable-shared --disable-mmx --arch=x86_64  libavutil     50.33. 0 / 50.33. 0  libavcore      0.12. 1 /  0.12. 1  libavcodec    52.94. 4 / 52.94. 4  libavformat   52.84. 0 / 52.84. 0  libavdevice   52. 2. 2 / 52. 2. 2  libavfilter    1.59. 0 /  1.59. 0  libswscale     0.12. 0 /  0.12. 0Input #0, mov,mp4,m4a,3gp,3g2,mj2, from '/RAID10/data/converted_video_files/7757.mov':  Duration: 00:00:09.06, start: 0.000000, bitrate: 3250 kb/s    Stream #0.0(eng): Video: h264, yuv420p, 528x528 [PAR 1:1 DAR 1:1], 3238 kb/s, 30 fps, 30 tbr, 90k tbn, 60 tbc    Stream #0.1(eng): Audio: aac, 48000 Hz, stereo, s16, 3 kb/s[buffer @ 0x74e160] w:528 h:528 pixfmt:yuv420pOutput #0, flv, to '/RAID10/data/converted_video_files/7757.flv':  Metadata:    encoder         : Lavf52.84.0    Stream #0.0(eng): Video: flv, yuv420p, 528x528 [PAR 1:1 DAR 1:1], q=2-31, 600 kb/s, 1k tbn, 24 tbc    Stream #0.1(eng): Audio: libmp3lame, 22050 Hz, stereo, s16, 96 kb/sStream mapping:  Stream #0.0 -> #0.0  Stream #0.1 -> #0.1Press [q] to stop encodingframe=   44 fps=  0 q=5.7 size=     317kB time=1.62 bitrate=1604.4kbits/s dup=0 drop=10    frame=   90 fps= 87 q=7.0 size=     530kB time=3.55 bitrate=1222.7kbits/s dup=0 drop=22    frame=  137 fps= 89 q=6.8 size=     703kB time=5.51 bitrate=1044.4kbits/s dup=0 drop=34    frame=  185 fps= 90 q=7.3 size=     883kB time=7.52 bitrate= 961.9kbits/s dup=0 drop=46    frame=  218 fps= 90 q=8.7 Lsize=    1053kB time=9.06 bitrate= 951.7kbits/s dup=0 drop=54    video:938kB audio:106kB global headers:0kB muxing overhead 0.875595%